<svg id="Layer_1" data-name="Layer 1" xmlns="http://www.w3.org/2000/svg" viewBox="0 0 226.116 50.0244">
  <g>
    <path id="fullLogo" d="M49.4058,0H60.5375L81.4629,31.7764h.3531V0H92.9477V50.0244H81.816L60.8906,18.2487h-.3531V50.0244H49.4058Z" style="fill: #fff"/>
    <path id="fullLogo-2" data-name="fullLogo" d="M136.233,39.8079V50.0244H101.3684V0H135.532V10.2165H113.6668v9.5819h18.674V29.8735h-18.674v9.9344Z" style="fill: #fff"/>
    <path id="fullLogo-3" data-name="fullLogo" d="M175.0318,50.0244l-10.2171-15.43-10.2158,15.43H141.6353l16.6976-25.2236L141.9167,0h13.034l9.9344,14.9368L174.7491,0h12.9648L171.3681,24.7305l16.6976,25.2939Z" style="fill: #fff"/>
    <path id="fullLogo-4" data-name="fullLogo" d="M226.116,10.2165H214.5608V50.0244H203.4291V10.2165H191.8739V0H226.116Z" style="fill: #fff"/>
    <g id="logoMark">
      <polygon id="logoMark_PathItem_" data-name="logoMark &lt;PathItem&gt;" points="30.261 17.198 20.668 38.748 11.082 17.198 0.014 17.198 14.615 50.024 15.648 50.024 25.683 50.024 26.716 50.024 41.33 17.198 30.261 17.198" style="fill: #fff"/>
      <rect id="logoMark_PathItem_2" data-name="logoMark &lt;PathItem&gt;" width="41.3311" height="10.2039" style="fill: #ff358b"/>
    </g>
  </g>
</svg>
